<svg xmlns="http://www.w3.org/2000/svg" viewBox="0 0 553.47 98.5"><defs><style>.cls-1,.cls-2{fill:#1181c2;}.cls-1{stroke:#1181c2;}.cls-1,.cls-4{stroke-miterlimit:10;}.cls-3{fill:#fff;}.cls-4{fill:none;stroke:#fff;stroke-width:3px;}</style></defs><g id="Layer_2" data-name="Layer 2"><g id="Text"><path class="cls-1" d="M165.25,13H111V86.56h55.32c17.25,0,31.23-16.46,31.23-36.78h0c0-8.15-1.67-15.2-5.48-21.29L218.36,54.3V87.85h29.58V54.3l31.77-33.56V87.85h19.72V45.26L317,87.85H332.3l15.34-40v40h26.29V13H344.35L331.2,44,317,13H261.09l-23,24.52h0L218.36,13H165.25M148.91,71.53H138.39v-43h10.52a14.67,14.67,0,0,1,14.68,14.67V56.85A14.68,14.68,0,0,1,148.91,71.53Z"/><path class="cls-1" d="M373.93,88.5V80.11L403.51,13h31.77l36.15,68.4L493.34,53V51.72L463.76,13h35.06l10.95,18.07L524,13h21.91l-23,32.26,1.1,2.59,28.48,40h-34L505.39,68.5,493.34,87.85H444l-8.76-16.77H400.22l-7.67,16.77H373.93M417.2,36.32,407.34,56h19.72Z"/></g><g id="Draw"><polygon class="cls-2" points="23.31 15.15 46.63 1.75 49.54 0 76.35 15.74 76.35 37.88 47.21 21.57 47.21 54.79 23.31 68.19 23.31 15.74 23.31 15.15"/><polygon class="cls-2" points="76.35 72.27 49.54 57.7 17.48 75.77 17.48 75.19 17.48 46.04 0 56.54 0 81.6 30.89 98.5 76.35 72.27"/><polygon class="cls-2" points="51.29 54.79 51.29 29.73 51.29 27.98 98.21 56.24 98.5 56.54 98.5 85.09 76.35 98.5 57.7 88.59 83.93 72.27 51.29 54.79"/><polygon class="cls-3" points="39.39 13.69 35.98 13.7 39.46 17.79 39.39 13.69 39.39 13.69"/><path class="cls-4" d="M66.26,70.77H32.35a3.41,3.41,0,0,1-3.21-4.57L39.92,35.84v-21H58.58v21L69.47,66.2A3.41,3.41,0,0,1,66.26,70.77Z"/><polygon class="cls-3" points="59.25 13.69 59.17 17.79 62.65 13.7 59.25 13.69 59.25 13.69"/></g></g></svg>