<svg xmlns="http://www.w3.org/2000/svg" viewBox="0 0 24.11 23.74"><defs><style>.cls-1,.cls-3{fill:none;}.cls-1,.cls-2{stroke:#000;}.cls-1{stroke-linecap:round;}.cls-1,.cls-2,.cls-3{stroke-miterlimit:10;}.cls-3{stroke:#fff;}</style></defs><title>Asset 2</title><g id="Layer_2" data-name="Layer 2"><g id="art"><path class="cls-1" d="M20.5,10.48v9a3.75,3.75,0,0,1-3.74,3.74H4.24A3.75,3.75,0,0,1,.5,19.5V7A3.74,3.74,0,0,1,4.24,3.24H15.76"/><rect class="cls-2" x="14.06" y="4.18" width="4.15" height="11.23" transform="matrix(0.81, 0.59, -0.59, 0.81, 8.94, -7.66)"/><path class="cls-2" d="M20.92.89h1.39a1.38,1.38,0,0,1,1.38,1.38V3.86a0,0,0,0,1,0,0H19.54a0,0,0,0,1,0,0V2.27A1.38,1.38,0,0,1,20.92.89Z" transform="matrix(0.81, 0.59, -0.59, 0.81, 5.61, -12.34)"/><polygon class="cls-2" points="9.54 18.74 9.73 16.97 9.93 15.2 11.36 16.26 12.79 17.31 11.16 18.02 9.54 18.74"/><line class="cls-3" x1="17.93" y1="5.85" x2="13.01" y2="12.54"/></g></g></svg>