<svg xmlns="http://www.w3.org/2000/svg" viewBox="0 0 139.05 137.25"><defs><style>.cls-1{fill:#c1c7d1;}</style></defs><g id="Layer_2" data-name="Layer 2"><g id="content"><path class="cls-1" d="M16.17,16.18a55.23,55.23,0,1,0,78.11,0A55.23,55.23,0,0,0,16.17,16.18ZM75,75a27.93,27.93,0,1,1,0-39.5A27.93,27.93,0,0,1,75,75Z"/><path class="cls-1" d="M113.53,130.44,84.86,101.77c-7.28-7.28-9-17.37-3.83-22.54h0c5.17-5.16,15.25-3.45,22.54,3.83l28.67,28.67c7.28,7.28,9,17.37,3.83,22.54h0C130.9,139.43,120.81,137.72,113.53,130.44Z"/></g></g></svg>